<svg xmlns="http://www.w3.org/2000/svg" width="800" height="400"><text x="400.0" y="20" text-anchor="middle" font-size="16" fill="white">Top 20 Specific Words (Class)</text><rect x="0.0" y="30.0" width="38.0" height="350.0" fill="steelblue"/><text x="20.0" y="395" text-anchor="middle" font-size="10" transform="rotate(45 20.0,395)" fill="white">sc</text><rect x="40.0" y="77.0149253731343" width="38.0" height="302.9850746268657" fill="steelblue"/><text x="60.0" y="395" text-anchor="middle" font-size="10" transform="rotate(45 60.0,395)" fill="white">c</text><rect x="80.0" y="87.46268656716416" width="38.0" height="292.53731343283584" fill="steelblue"/><text x="100.0" y="395" text-anchor="middle" font-size="10" transform="rotate(45 100.0,395)" fill="white">data</text><rect x="120.0" y="92.68656716417911" width="38.0" height="287.3134328358209" fill="steelblue"/><text x="140.0" y="395" text-anchor="middle" font-size="10" transform="rotate(45 140.0,395)" fill="white">2023</text><rect x="160.0" y="92.68656716417911" width="38.0" height="287.3134328358209" fill="steelblue"/><text x="180.0" y="395" text-anchor="middle" font-size="10" transform="rotate(45 180.0,395)" fill="white">2024</text><rect x="200.0" y="92.68656716417911" width="38.0" height="287.3134328358209" fill="steelblue"/><text x="220.0" y="395" text-anchor="middle" font-size="10" transform="rotate(45 220.0,395)" fill="white">columbia</text><rect x="240.0" y="103.1343283582089" width="38.0" height="276.8656716417911" fill="steelblue"/><text x="260.0" y="395" text-anchor="middle" font-size="10" transform="rotate(45 260.0,395)" fill="white">using</text><rect x="280.0" y="134.4776119402985" width="38.0" height="245.5223880597015" fill="steelblue"/><text x="300.0" y="395" text-anchor="middle" font-size="10" transform="rotate(45 300.0,395)" fill="white">computer</text><rect x="320.0" y="134.4776119402985" width="38.0" height="245.5223880597015" fill="steelblue"/><text x="340.0" y="395" text-anchor="middle" font-size="10" transform="rotate(45 340.0,395)" fill="white">skills</text><rect x="360.0" y="139.7014925373134" width="38.0" height="240.2985074626866" fill="steelblue"/><text x="380.0" y="395" text-anchor="middle" font-size="10" transform="rotate(45 380.0,395)" fill="white">may</text><rect x="400.0" y="144.92537313432834" width="38.0" height="235.07462686567166" fill="steelblue"/><text x="420.0" y="395" text-anchor="middle" font-size="10" transform="rotate(45 420.0,395)" fill="white">science</text><rect x="440.0" y="144.92537313432834" width="38.0" height="235.07462686567166" fill="steelblue"/><text x="460.0" y="395" text-anchor="middle" font-size="10" transform="rotate(45 460.0,395)" fill="white">software</text><rect x="480.0" y="144.92537313432834" width="38.0" height="235.07462686567166" fill="steelblue"/><text x="500.0" y="395" text-anchor="middle" font-size="10" transform="rotate(45 500.0,395)" fill="white">2025</text><rect x="520.0" y="144.92537313432834" width="38.0" height="235.07462686567166" fill="steelblue"/><text x="540.0" y="395" text-anchor="middle" font-size="10" transform="rotate(45 540.0,395)" fill="white">south</text><rect x="560.0" y="144.92537313432834" width="38.0" height="235.07462686567166" fill="steelblue"/><text x="580.0" y="395" text-anchor="middle" font-size="10" transform="rotate(45 580.0,395)" fill="white">carolina</text><rect x="600.0" y="150.14925373134326" width="38.0" height="229.85074626865674" fill="steelblue"/><text x="620.0" y="395" text-anchor="middle" font-size="10" transform="rotate(45 620.0,395)" fill="white">present</text><rect x="640.0" y="155.3731343283582" width="38.0" height="224.6268656716418" fill="steelblue"/><text x="660.0" y="395" text-anchor="middle" font-size="10" transform="rotate(45 660.0,395)" fill="white">com</text><rect x="680.0" y="155.3731343283582" width="38.0" height="224.6268656716418" fill="steelblue"/><text x="700.0" y="395" text-anchor="middle" font-size="10" transform="rotate(45 700.0,395)" fill="white">experience</text><rect x="720.0" y="155.3731343283582" width="38.0" height="224.6268656716418" fill="steelblue"/><text x="740.0" y="395" text-anchor="middle" font-size="10" transform="rotate(45 740.0,395)" fill="white">university</text><rect x="760.0" y="160.59701492537312" width="38.0" height="219.40298507462688" fill="steelblue"/><text x="780.0" y="395" text-anchor="middle" font-size="10" transform="rotate(45 780.0,395)" fill="white">programming</text></svg>