<svg xmlns="http://www.w3.org/2000/svg" width="800" height="400"><text x="400.0" y="20" text-anchor="middle" font-size="16" fill="white">Top 20 Resume Words (Class)</text><rect x="0.0" y="30.0" width="38.0" height="350.0" fill="steelblue"/><text x="20.0" y="395" text-anchor="middle" font-size="10" transform="rotate(45 20.0,395)" fill="white">and</text><rect x="40.0" y="217.7094972067039" width="38.0" height="162.2905027932961" fill="steelblue"/><text x="60.0" y="395" text-anchor="middle" font-size="10" transform="rotate(45 60.0,395)" fill="white">of</text><rect x="80.0" y="218.6871508379888" width="38.0" height="161.3128491620112" fill="steelblue"/><text x="100.0" y="395" text-anchor="middle" font-size="10" transform="rotate(45 100.0,395)" fill="white">to</text><rect x="120.0" y="234.3296089385475" width="38.0" height="145.6703910614525" fill="steelblue"/><text x="140.0" y="395" text-anchor="middle" font-size="10" transform="rotate(45 140.0,395)" fill="white">in</text><rect x="160.0" y="242.15083798882682" width="38.0" height="137.84916201117318" fill="steelblue"/><text x="180.0" y="395" text-anchor="middle" font-size="10" transform="rotate(45 180.0,395)" fill="white">a</text><rect x="200.0" y="269.52513966480444" width="38.0" height="110.47486033519553" fill="steelblue"/><text x="220.0" y="395" text-anchor="middle" font-size="10" transform="rotate(45 220.0,395)" fill="white">for</text><rect x="240.0" y="276.36871508379886" width="38.0" height="103.63128491620112" fill="steelblue"/><text x="260.0" y="395" text-anchor="middle" font-size="10" transform="rotate(45 260.0,395)" fill="white">the</text><rect x="280.0" y="291.0335195530726" width="38.0" height="88.96648044692738" fill="steelblue"/><text x="300.0" y="395" text-anchor="middle" font-size="10" transform="rotate(45 300.0,395)" fill="white">with</text><rect x="320.0" y="314.4972067039106" width="38.0" height="65.5027932960894" fill="steelblue"/><text x="340.0" y="395" text-anchor="middle" font-size="10" transform="rotate(45 340.0,395)" fill="white">sc</text><rect x="360.0" y="323.29608938547483" width="38.0" height="56.70391061452514" fill="steelblue"/><text x="380.0" y="395" text-anchor="middle" font-size="10" transform="rotate(45 380.0,395)" fill="white">c</text><rect x="400.0" y="325.2513966480447" width="38.0" height="54.74860335195531" fill="steelblue"/><text x="420.0" y="395" text-anchor="middle" font-size="10" transform="rotate(45 420.0,395)" fill="white">data</text><rect x="440.0" y="326.2290502793296" width="38.0" height="53.770949720670394" fill="steelblue"/><text x="460.0" y="395" text-anchor="middle" font-size="10" transform="rotate(45 460.0,395)" fill="white">2023</text><rect x="480.0" y="326.2290502793296" width="38.0" height="53.770949720670394" fill="steelblue"/><text x="500.0" y="395" text-anchor="middle" font-size="10" transform="rotate(45 500.0,395)" fill="white">2024</text><rect x="520.0" y="326.2290502793296" width="38.0" height="53.770949720670394" fill="steelblue"/><text x="540.0" y="395" text-anchor="middle" font-size="10" transform="rotate(45 540.0,395)" fill="white">columbia</text><rect x="560.0" y="328.18435754189943" width="38.0" height="51.81564245810056" fill="steelblue"/><text x="580.0" y="395" text-anchor="middle" font-size="10" transform="rotate(45 580.0,395)" fill="white">using</text><rect x="600.0" y="333.07262569832403" width="38.0" height="46.92737430167598" fill="steelblue"/><text x="620.0" y="395" text-anchor="middle" font-size="10" transform="rotate(45 620.0,395)" fill="white">on</text><rect x="640.0" y="334.05027932960894" width="38.0" height="45.94972067039106" fill="steelblue"/><text x="660.0" y="395" text-anchor="middle" font-size="10" transform="rotate(45 660.0,395)" fill="white">computer</text><rect x="680.0" y="334.05027932960894" width="38.0" height="45.94972067039106" fill="steelblue"/><text x="700.0" y="395" text-anchor="middle" font-size="10" transform="rotate(45 700.0,395)" fill="white">skills</text><rect x="720.0" y="335.02793296089385" width="38.0" height="44.97206703910614" fill="steelblue"/><text x="740.0" y="395" text-anchor="middle" font-size="10" transform="rotate(45 740.0,395)" fill="white">may</text><rect x="760.0" y="336.00558659217876" width="38.0" height="43.99441340782123" fill="steelblue"/><text x="780.0" y="395" text-anchor="middle" font-size="10" transform="rotate(45 780.0,395)" fill="white">science</text></svg>